<svg width="16" height="17" viewBox="0 0 16 17" fill="none" xmlns="http://www.w3.org/2000/svg">
<path d="M9.33317 1.8335L9.8635 1.30317C9.72285 1.16251 9.53208 1.0835 9.33317 1.0835V1.8335ZM3.99984 1.8335V1.0835V1.8335ZM2.6665 3.16683H1.9165H2.6665ZM2.6665 13.8335H1.9165H2.6665ZM13.3332 5.8335H14.0832C14.0832 5.63458 14.0042 5.44382 13.8635 5.30317L13.3332 5.8335ZM9.33317 5.8335H8.58317C8.58317 6.24771 8.91896 6.5835 9.33317 6.5835V5.8335ZM10.6665 9.91683C11.0807 9.91683 11.4165 9.58104 11.4165 9.16683C11.4165 8.75262 11.0807 8.41683 10.6665 8.41683V9.91683ZM5.33317 8.41683C4.91896 8.41683 4.58317 8.75262 4.58317 9.16683C4.58317 9.58104 4.91896 9.91683 5.33317 9.91683V8.41683ZM10.6665 12.5835C11.0807 12.5835 11.4165 12.2477 11.4165 11.8335C11.4165 11.4193 11.0807 11.0835 10.6665 11.0835V12.5835ZM5.33317 11.0835C4.91896 11.0835 4.58317 11.4193 4.58317 11.8335C4.58317 12.2477 4.91896 12.5835 5.33317 12.5835V11.0835ZM6.6665 7.25016C7.08072 7.25016 7.4165 6.91438 7.4165 6.50016C7.4165 6.08595 7.08072 5.75016 6.6665 5.75016V7.25016ZM5.33317 5.75016C4.91896 5.75016 4.58317 6.08595 4.58317 6.50016C4.58317 6.91438 4.91896 7.25016 5.33317 7.25016V5.75016ZM9.33317 1.0835H3.99984V2.5835H9.33317V1.0835ZM3.99984 1.0835C3.4473 1.0835 2.9174 1.30299 2.5267 1.69369L3.58736 2.75435C3.69675 2.64495 3.84513 2.5835 3.99984 2.5835V1.0835ZM2.5267 1.69369C2.136 2.08439 1.9165 2.6143 1.9165 3.16683H3.4165C3.4165 3.01212 3.47796 2.86375 3.58736 2.75435L2.5267 1.69369ZM1.9165 3.16683V13.8335H3.4165V3.16683H1.9165ZM1.9165 13.8335C1.9165 14.386 2.136 14.9159 2.5267 15.3066L3.58736 14.246C3.47796 14.1366 3.4165 13.9882 3.4165 13.8335H1.9165ZM2.5267 15.3066C2.9174 15.6973 3.4473 15.9168 3.99984 15.9168V14.4168C3.84513 14.4168 3.69675 14.3554 3.58736 14.246L2.5267 15.3066ZM3.99984 15.9168H11.9998V14.4168H3.99984V15.9168ZM11.9998 15.9168C12.5524 15.9168 13.0823 15.6973 13.473 15.3066L12.4123 14.246C12.3029 14.3554 12.1545 14.4168 11.9998 14.4168V15.9168ZM13.473 15.3066C13.8637 14.9159 14.0832 14.386 14.0832 13.8335H12.5832C12.5832 13.9882 12.5217 14.1366 12.4123 14.246L13.473 15.3066ZM14.0832 13.8335V5.8335H12.5832V13.8335H14.0832ZM13.8635 5.30317L9.8635 1.30317L8.80284 2.36383L12.8028 6.36383L13.8635 5.30317ZM8.58317 1.8335V5.8335H10.0832V1.8335H8.58317ZM9.33317 6.5835H13.3332V5.0835H9.33317V6.5835ZM10.6665 8.41683H5.33317V9.91683H10.6665V8.41683ZM10.6665 11.0835H5.33317V12.5835H10.6665V11.0835ZM6.6665 5.75016H5.33317V7.25016H6.6665V5.75016Z" fill="currentColor"/>
</svg>
