<svg width="24" height="24" viewBox="0 0 24 24" fill="none" xmlns="http://www.w3.org/2000/svg">
<path d="M6 5C5.44772 5 5 5.44772 5 6C5 6.55228 5.44772 7 6 7V5ZM6.01 7C6.56228 7 7.01 6.55228 7.01 6C7.01 5.44772 6.56228 5 6.01 5V7ZM6 17C5.44772 17 5 17.4477 5 18C5 18.5523 5.44772 19 6 19V17ZM6.01 19C6.56228 19 7.01 18.5523 7.01 18C7.01 17.4477 6.56228 17 6.01 17V19ZM4 3H20V1H4V3ZM20 3C20.5523 3 21 3.44771 21 4H23C23 2.34315 21.6569 1 20 1V3ZM21 4V8H23V4H21ZM21 8C21 8.55228 20.5523 9 20 9V11C21.6569 11 23 9.65685 23 8H21ZM20 9H4V11H20V9ZM4 9C3.44772 9 3 8.55228 3 8H1C1 9.65685 2.34315 11 4 11V9ZM3 8V4H1V8H3ZM3 4C3 3.44772 3.44772 3 4 3V1C2.34315 1 1 2.34315 1 4H3ZM4 15H20V13H4V15ZM20 15C20.5523 15 21 15.4477 21 16H23C23 14.3431 21.6569 13 20 13V15ZM21 16V20H23V16H21ZM21 20C21 20.5523 20.5523 21 20 21V23C21.6569 23 23 21.6569 23 20H21ZM20 21H4V23H20V21ZM4 21C3.44772 21 3 20.5523 3 20H1C1 21.6569 2.34315 23 4 23V21ZM3 20V16H1V20H3ZM3 16C3 15.4477 3.44772 15 4 15V13C2.34315 13 1 14.3431 1 16H3ZM6 7H6.01V5H6V7ZM6 19H6.01V17H6V19Z" fill="currentColor"/>
</svg>
