<svg width="16" height="16" viewBox="0 0 16 16" fill="none" xmlns="http://www.w3.org/2000/svg">
<g clip-path="url(#clip0_1039_1554)">
<path fill-rule="evenodd" clip-rule="evenodd" d="M1.99984 4.08337C1.67767 4.08337 1.4165 4.34454 1.4165 4.66671V11.3334C1.4165 11.6555 1.67767 11.9167 1.99984 11.9167H9.33317C9.65534 11.9167 9.9165 11.6555 9.9165 11.3334V4.66671C9.9165 4.34454 9.65534 4.08337 9.33317 4.08337H1.99984ZM11.4165 6.54265V4.66671C11.4165 3.51611 10.4838 2.58337 9.33317 2.58337H1.99984C0.849244 2.58337 -0.0834961 3.51611 -0.0834961 4.66671V11.3334C-0.0834961 12.484 0.849244 13.4167 1.99984 13.4167H9.33317C10.4838 13.4167 11.4165 12.484 11.4165 11.3334V9.45743L14.8972 11.9437C15.1259 12.107 15.4266 12.1288 15.6764 12.0002C15.9262 11.8717 16.0832 11.6143 16.0832 11.3334V4.66671C16.0832 4.38577 15.9262 4.12838 15.6764 3.99983C15.4266 3.87128 15.1259 3.89311 14.8972 4.05641L11.4165 6.54265ZM11.9569 8.00004L14.5832 9.87598V6.1241L11.9569 8.00004Z" fill="currentColor"/>
</g>
<defs>
<clipPath id="clip0_1039_1554">
<rect width="16" height="16" fill="transparent"/>
</clipPath>
</defs>
</svg>

