<svg width="24" height="24" viewBox="0 0 24 24" fill="none" xmlns="http://www.w3.org/2000/svg">
<path d="M9.20129 14.0217C9.27401 13.4742 8.88914 12.9714 8.34166 12.8987C7.79419 12.826 7.29142 13.2109 7.21871 13.7583L9.20129 14.0217ZM7 23L6.00871 22.8683C5.95815 23.249 6.13002 23.625 6.45096 23.8358C6.7719 24.0466 7.18522 24.0551 7.5145 23.8575L7 23ZM12 20L12.5145 19.1425C12.1978 18.9525 11.8022 18.9525 11.4855 19.1425L12 20ZM17 23L16.4855 23.8575C16.8148 24.055 17.228 24.0466 17.549 23.8358C17.8699 23.625 18.0418 23.2491 17.9913 22.8685L17 23ZM16.7813 13.7485C16.7087 13.201 16.206 12.816 15.6585 12.8887C15.111 12.9613 14.726 13.464 14.7987 14.0115L16.7813 13.7485ZM18 8C18 11.3137 15.3137 14 12 14V16C16.4183 16 20 12.4183 20 8H18ZM12 14C8.68629 14 6 11.3137 6 8H4C4 12.4183 7.58172 16 12 16V14ZM6 8C6 4.68629 8.68629 2 12 2V0C7.58172 0 4 3.58172 4 8H6ZM12 2C15.3137 2 18 4.68629 18 8H20C20 3.58172 16.4183 0 12 0V2ZM7.21871 13.7583L6.00871 22.8683L7.99129 23.1317L9.20129 14.0217L7.21871 13.7583ZM7.5145 23.8575L12.5145 20.8575L11.4855 19.1425L6.4855 22.1425L7.5145 23.8575ZM11.4855 20.8575L16.4855 23.8575L17.5145 22.1425L12.5145 19.1425L11.4855 20.8575ZM17.9913 22.8685L16.7813 13.7485L14.7987 14.0115L16.0087 23.1315L17.9913 22.8685Z" fill="currentColor"/>
</svg>
